<svg width="800px" height="800px" viewBox="0 0 24 24" xmlns="http://www.w3.org/2000/svg">
  <g stroke="none" stroke-width="1" fill="none" fill-rule="evenodd">
    <path d="M14,8.5 L14,5.5 C14,4.11928813 12.8807119,3 11.5,3 C10.1192881,3 9,4.11928813 9,5.5 L9,8.5 L2,14 L9,13 L9,18 L6.5,18 C6.22385763,18 6,18.2238576 6,18.5 C6,18.7761424 6.22385763,19 6.5,19 L16.5,19 C16.7761424,19 17,18.7761424 17,18.5 C17,18.2238576 16.7761424,18 16.5,18 L14,18 L14,13 L21,14 L14,8.5 Z" fill="#FFFFFF" fill-rule="nonzero"></path>
  </g>
</svg>