<svg width="800px" height="800px" viewBox="0 0 24 24" fill="none" xmlns="http://www.w3.org/2000/svg">
<path d="M12 21C16.9706 21 21 16.9706 21 12C21 7.02944 16.9706 3 12 3C7.02944 3 3 7.02944 3 12C3 16.9706 7.02944 21 12 21Z" stroke="#FFFFFF" stroke-width="1.5"/>
<path d="M3.5 11H20.5" stroke="#FFFFFF" stroke-width="1.5" stroke-linecap="round"/>
<path d="M3.5 13H20.5" stroke="#FFFFFF" stroke-width="1.5" stroke-linecap="round"/>
<path d="M12 3C10.6 4.5 9.33333 7.2 9 12C8.66667 16.8 10 19.6667 12 21" stroke="#FFFFFF" stroke-width="1.5" stroke-linecap="round"/>
<path d="M12 3C13.4 4.5 14.6667 7.2 15 12C15.3333 16.8 14 19.6667 12 21" stroke="#FFFFFF" stroke-width="1.5" stroke-linecap="round"/>
</svg>